<svg xmlns="http://www.w3.org/2000/svg" version="1.1" xmlns:xlink="http://www.w3.org/1999/xlink" xmlns:svgjs="http://svgjs.dev/svgjs" width="1500" height="1500" viewBox="0 0 1500 1500"><rect width="1500" height="1500" fill="#000000"></rect><g transform="matrix(0.6666666666666666,0,0,0.6666666666666666,249.39393939393938,464.63599322179726)"><svg viewBox="0 0 396 226" data-background-color="#ffffff" preserveAspectRatio="xMidYMid meet" height="856" width="1500" xmlns="http://www.w3.org/2000/svg" xmlns:xlink="http://www.w3.org/1999/xlink"><g id="tight-bounds" transform="matrix(1,0,0,1,0.2400000000000091,0.012147544171426716)"><svg viewBox="0 0 395.52 225.97570491165715" height="225.97570491165715" width="395.52"><g><svg viewBox="0 0 432.66838812704736 247.2" height="225.97570491165715" width="395.52"><g transform="matrix(1,0,0,1,220.3266378676216,0)"><svg viewBox="0 0 212.3417502594258 247.2" height="247.2" width="212.3417502594258"><g id="textblocktransform"><svg viewBox="0 0 212.3417502594258 247.2" height="247.2" width="212.3417502594258" id="textblock"><g><svg viewBox="0 0 212.3417502594258 247.2" height="247.2" width="212.3417502594258"><g transform="matrix(1,0,0,1,0,0)"><svg width="212.3417502594258" viewBox="0.4899999999999993 -35.11 123.68 136.64" height="247.2" data-palette-color="#ff0033"><svg></svg><svg></svg><svg></svg><g class="wordmark-text-0" data-fill-palette-color="primary" id="text-0"><path d="M32.93 0h-4.66l-4.61-11.94h-13.89l-4.62 11.94h-4.66l13.91-35.11h4.62zM16.7-29.98l-5.49 14.28h11.01zM41.87-19.51h0.22c0.507-1.007 1.047-1.917 1.62-2.73 0.58-0.813 1.22-1.507 1.92-2.08v0c0.633-0.553 1.333-0.963 2.1-1.23 0.767-0.267 1.637-0.4 2.61-0.4v0c0.327 0 0.707 0.017 1.14 0.05 0.427 0.033 0.837 0.09 1.23 0.17v0c-0.067 0.813-0.143 1.577-0.23 2.29-0.093 0.72-0.213 1.447-0.36 2.18v0c-0.813-0.147-1.557-0.253-2.23-0.32-0.673-0.067-1.313-0.05-1.92 0.05v0c-0.713 0.127-1.333 0.367-1.86 0.72-0.533 0.347-1.023 0.81-1.47 1.39-0.447 0.58-0.883 1.27-1.31 2.07-0.42 0.807-0.883 1.73-1.39 2.77v0 14.58h-4.2v-15.65c0-1.027-0.01-1.93-0.03-2.71-0.027-0.78-0.077-1.523-0.15-2.23-0.073-0.713-0.183-1.413-0.33-2.1-0.147-0.693-0.34-1.463-0.58-2.31v0c0.68-0.18 1.35-0.343 2.01-0.49 0.66-0.147 1.33-0.283 2.01-0.41v0c0.233 0.647 0.417 1.223 0.55 1.73 0.14 0.507 0.25 1 0.33 1.48 0.08 0.48 0.143 0.967 0.19 1.46 0.04 0.5 0.083 1.073 0.13 1.72zM62.21-19.51h0.22c0.5-1.007 1.04-1.917 1.62-2.73 0.58-0.813 1.22-1.507 1.92-2.08v0c0.633-0.553 1.333-0.963 2.1-1.23 0.76-0.267 1.63-0.4 2.61-0.4v0c0.327 0 0.703 0.017 1.13 0.05 0.433 0.033 0.847 0.09 1.24 0.17v0c-0.067 0.813-0.147 1.577-0.24 2.29-0.087 0.72-0.203 1.447-0.35 2.18v0c-0.813-0.147-1.557-0.253-2.23-0.32-0.68-0.067-1.32-0.05-1.92 0.05v0c-0.713 0.127-1.337 0.367-1.87 0.72-0.527 0.347-1.013 0.81-1.46 1.39-0.447 0.58-0.883 1.27-1.31 2.07-0.42 0.807-0.883 1.73-1.39 2.77v0 14.58h-4.2v-15.65c0-1.027-0.013-1.93-0.04-2.71-0.02-0.78-0.067-1.523-0.14-2.23-0.073-0.713-0.183-1.413-0.33-2.1-0.147-0.693-0.343-1.463-0.59-2.31v0c0.687-0.18 1.36-0.343 2.02-0.49 0.66-0.147 1.33-0.283 2.01-0.41v0c0.227 0.647 0.41 1.223 0.55 1.73 0.14 0.507 0.25 1 0.33 1.48 0.08 0.48 0.14 0.967 0.18 1.46 0.04 0.5 0.087 1.073 0.14 1.72zM79.69-20.9v0l-1.08-3.42c2.733-1.087 5.6-1.63 8.6-1.63v0c2.62 0 4.62 0.44 6 1.32v0c1.58 1.007 2.37 2.723 2.37 5.15v0 9.98c0 1.333 0.017 2.7 0.05 4.1v0c0.013 0.833 0.093 1.697 0.24 2.59v0c0.133 0.847 0.307 1.653 0.52 2.42v0l-4.01 0.88c-0.373-1.093-0.61-2.313-0.71-3.66v0l-0.48-0.05c-2.02 2.54-4.593 3.81-7.72 3.81v0c-2.28 0-4.11-0.633-5.49-1.9-1.387-1.26-2.08-3.037-2.08-5.33v0c0-1.707 0.38-3.107 1.14-4.2 0.753-1.093 1.823-2.013 3.21-2.76v0c2.18-1.187 5.23-1.78 9.15-1.78v0c0.527 0 1.227 0.017 2.1 0.05v0-3.71c0-1.173-0.357-2.02-1.07-2.54-0.713-0.52-1.837-0.78-3.37-0.78v0c-2.227 0-4.683 0.487-7.37 1.46zM91.5-7.13v0-5.13c-0.44-0.027-1.08-0.04-1.92-0.04v0c-1.433 0-2.753 0.12-3.96 0.36v0c-1.793 0.36-3.18 0.927-4.16 1.7-0.987 0.773-1.48 1.883-1.48 3.33v0c0 2.607 1.417 3.91 4.25 3.91v0c1.467 0 2.833-0.39 4.1-1.17v0c1.04-0.653 2.097-1.64 3.17-2.96zM119.97-25.39h4.2v25.95c0 1.613-0.263 3.007-0.79 4.18-0.533 1.167-1.267 2.133-2.2 2.9-0.933 0.767-2.043 1.333-3.33 1.7-1.287 0.367-2.687 0.55-4.2 0.55v0c-1.367 0-2.743-0.12-4.13-0.36-1.38-0.233-2.697-0.563-3.95-0.99v0c0.207-0.567 0.427-1.12 0.66-1.66 0.227-0.533 0.453-1.07 0.68-1.61v0c0.393 0.133 0.86 0.273 1.4 0.42 0.547 0.147 1.127 0.28 1.74 0.4 0.607 0.12 1.233 0.217 1.88 0.29 0.64 0.073 1.26 0.11 1.86 0.11v0c0.947 0 1.803-0.123 2.57-0.37 0.76-0.253 1.41-0.633 1.95-1.14 0.54-0.507 0.95-1.13 1.23-1.87 0.287-0.74 0.43-1.59 0.43-2.55v0-5.52h-0.46c-0.427 0.767-0.917 1.487-1.47 2.16-0.553 0.68-1.163 1.27-1.83 1.77-0.667 0.507-1.387 0.903-2.16 1.19-0.773 0.287-1.59 0.43-2.45 0.43v0c-1.193 0-2.227-0.137-3.1-0.41-0.88-0.267-1.633-0.663-2.26-1.19-0.627-0.533-1.14-1.193-1.54-1.98-0.4-0.787-0.707-1.703-0.92-2.75v0c-0.173-0.927-0.287-1.92-0.34-2.98-0.047-1.053-0.07-2.143-0.07-3.27v0-13.4h4.2v14.57c0 1.06 0.047 2.05 0.14 2.97 0.1 0.92 0.317 1.717 0.65 2.39 0.333 0.68 0.827 1.21 1.48 1.59 0.653 0.38 1.54 0.57 2.66 0.57v0c0.833 0 1.613-0.197 2.34-0.59 0.733-0.4 1.41-0.91 2.03-1.53 0.62-0.62 1.187-1.303 1.7-2.05 0.513-0.747 0.98-1.48 1.4-2.2v0z" fill="#ffffff" fill-rule="nonzero" stroke="none" stroke-width="1" stroke-linecap="butt" stroke-linejoin="miter" stroke-miterlimit="10" stroke-dasharray="" stroke-dashoffset="0" font-family="none" font-weight="none" font-size="none" text-anchor="none" style="mix-blend-mode: normal" data-fill-palette-color="primary" opacity="1"></path><path transform="translate(0,48)" d="M5.59-20.9v0l-1.07-3.42c2.733-1.087 5.597-1.63 8.59-1.63v0c2.62 0 4.623 0.44 6.01 1.32v0c1.573 1.007 2.36 2.723 2.36 5.15v0 9.98c0 1.333 0.017 2.7 0.05 4.1v0c0.02 0.833 0.103 1.697 0.25 2.59v0c0.127 0.847 0.297 1.653 0.51 2.42v0l-4 0.88c-0.38-1.093-0.617-2.313-0.71-3.66v0l-0.49-0.05c-2.02 2.54-4.59 3.81-7.71 3.81v0c-2.28 0-4.113-0.633-5.5-1.9-1.38-1.26-2.07-3.037-2.07-5.33v0c0-1.707 0.377-3.107 1.13-4.2 0.76-1.093 1.83-2.013 3.21-2.76v0c2.18-1.187 5.233-1.78 9.16-1.78v0c0.52 0 1.22 0.017 2.1 0.05v0-3.71c0-1.173-0.36-2.02-1.08-2.54-0.713-0.52-1.837-0.78-3.37-0.78v0c-2.227 0-4.683 0.487-7.37 1.46zM17.41-7.13v0-5.13c-0.44-0.027-1.083-0.04-1.93-0.04v0c-1.433 0-2.753 0.12-3.96 0.36v0c-1.787 0.36-3.173 0.927-4.16 1.7-0.987 0.773-1.48 1.883-1.48 3.33v0c0 2.607 1.417 3.91 4.25 3.91v0c1.467 0 2.833-0.39 4.1-1.17v0c1.047-0.653 2.107-1.64 3.18-2.96zM37.06-25.95v0c1.333 0 2.673 0.137 4.02 0.41 1.34 0.28 2.587 0.663 3.74 1.15v0c-0.227 0.52-0.46 1.033-0.7 1.54-0.247 0.507-0.517 1.003-0.81 1.49v0c-0.407-0.167-0.857-0.33-1.35-0.49-0.5-0.16-1.023-0.3-1.57-0.42-0.54-0.113-1.1-0.207-1.68-0.28-0.58-0.073-1.147-0.11-1.7-0.11v0c-0.6 0-1.18 0.063-1.74 0.19-0.567 0.12-1.063 0.317-1.49 0.59-0.433 0.28-0.78 0.643-1.04 1.09-0.26 0.447-0.39 1.003-0.39 1.67v0c0 0.687 0.147 1.26 0.44 1.72 0.293 0.467 0.69 0.853 1.19 1.16 0.507 0.313 1.097 0.577 1.77 0.79 0.68 0.207 1.403 0.4 2.17 0.58v0c1.187 0.293 2.293 0.623 3.32 0.99 1.02 0.367 1.907 0.843 2.66 1.43 0.747 0.587 1.33 1.31 1.75 2.17 0.427 0.867 0.64 1.933 0.64 3.2v0c0 1.333-0.263 2.48-0.79 3.44-0.533 0.96-1.25 1.753-2.15 2.38-0.907 0.627-1.96 1.09-3.16 1.39-1.207 0.307-2.493 0.46-3.86 0.46v0c-0.72 0-1.457-0.047-2.21-0.14-0.76-0.087-1.51-0.217-2.25-0.39-0.74-0.173-1.467-0.38-2.18-0.62-0.72-0.247-1.397-0.517-2.03-0.81v0c0.227-0.52 0.467-1.027 0.72-1.52 0.253-0.5 0.517-0.993 0.79-1.48v0c0.54 0.227 1.11 0.443 1.71 0.65 0.607 0.2 1.227 0.373 1.86 0.52 0.633 0.147 1.26 0.267 1.88 0.36 0.62 0.087 1.213 0.13 1.78 0.13v0c0.72 0 1.417-0.08 2.09-0.24 0.673-0.167 1.277-0.423 1.81-0.77 0.527-0.353 0.947-0.807 1.26-1.36 0.32-0.553 0.48-1.22 0.48-2v0c0-0.733-0.15-1.337-0.45-1.81-0.3-0.467-0.703-0.86-1.21-1.18-0.507-0.32-1.097-0.58-1.77-0.78-0.673-0.207-1.387-0.4-2.14-0.58v0c-1.133-0.273-2.21-0.59-3.23-0.95-1.02-0.36-1.907-0.827-2.66-1.4-0.76-0.58-1.363-1.297-1.81-2.15-0.447-0.853-0.67-1.917-0.67-3.19v0c0-1.187 0.243-2.21 0.73-3.07 0.493-0.867 1.15-1.577 1.97-2.13 0.82-0.553 1.77-0.963 2.85-1.23 1.087-0.267 2.223-0.4 3.41-0.4z" fill="#ffffff" fill-rule="nonzero" stroke="none" stroke-width="1" stroke-linecap="butt" stroke-linejoin="miter" stroke-miterlimit="10" stroke-dasharray="" stroke-dashoffset="0" font-family="none" font-weight="none" font-size="none" text-anchor="none" style="mix-blend-mode: normal" data-fill-palette-color="secondary" opacity="1"></path><path transform="translate(0,95.99)" d="M8.72-8.54v-26.57h4.59v24.64c0 2.293-0.1 4.203-0.3 5.73-0.193 1.533-0.56 2.887-1.1 4.06v0c-1.187 2.567-3.547 4.64-7.08 6.22v0l-1.8-2.63c1.627-1.373 2.693-2.343 3.2-2.91v0c0.407-0.453 0.747-0.917 1.02-1.39v0c0.98-1.647 1.47-4.03 1.47-7.15zM20.29-1.49l1.46-3.61c0.667 0.26 1.37 0.503 2.11 0.73 0.747 0.227 1.507 0.423 2.28 0.59 0.767 0.16 1.543 0.29 2.33 0.39 0.78 0.093 1.543 0.14 2.29 0.14v0c1.287 0 2.45-0.147 3.49-0.44 1.047-0.293 1.943-0.72 2.69-1.28 0.747-0.56 1.323-1.25 1.73-2.07 0.407-0.827 0.61-1.767 0.61-2.82v0c0-1.06-0.19-1.927-0.57-2.6-0.387-0.68-0.94-1.247-1.66-1.7-0.727-0.453-1.617-0.84-2.67-1.16-1.06-0.32-2.267-0.65-3.62-0.99v0c-1.493-0.387-2.873-0.82-4.14-1.3-1.26-0.48-2.35-1.103-3.27-1.87-0.92-0.767-1.64-1.717-2.16-2.85-0.52-1.127-0.78-2.537-0.78-4.23v0c0-1.387 0.277-2.64 0.83-3.76 0.553-1.127 1.333-2.083 2.34-2.87 1.013-0.793 2.227-1.4 3.64-1.82 1.42-0.42 2.983-0.63 4.69-0.63v0c0.827 0 1.673 0.05 2.54 0.15 0.86 0.107 1.713 0.25 2.56 0.43 0.847 0.18 1.677 0.4 2.49 0.66 0.813 0.26 1.58 0.547 2.3 0.86v0l-1.47 3.61c-0.587-0.227-1.183-0.457-1.79-0.69-0.613-0.227-1.26-0.43-1.94-0.61-0.687-0.173-1.417-0.313-2.19-0.42-0.773-0.107-1.607-0.16-2.5-0.16v0c-0.893 0-1.747 0.097-2.56 0.29-0.813 0.193-1.533 0.5-2.16 0.92-0.627 0.413-1.13 0.953-1.51 1.62-0.373 0.667-0.56 1.473-0.56 2.42v0c0 1.053 0.193 1.92 0.58 2.6 0.38 0.673 0.933 1.237 1.66 1.69 0.72 0.46 1.61 0.847 2.67 1.16 1.06 0.32 2.263 0.65 3.61 0.99v0c1.5 0.393 2.88 0.83 4.14 1.31 1.26 0.48 2.35 1.103 3.27 1.87 0.92 0.76 1.64 1.71 2.16 2.85 0.52 1.14 0.78 2.55 0.78 4.23v0c0 1.773-0.327 3.313-0.98 4.62-0.66 1.313-1.58 2.4-2.76 3.26-1.18 0.867-2.58 1.51-4.2 1.93-1.62 0.427-3.383 0.64-5.29 0.64v0c-3.593 0-7.083-0.693-10.47-2.08zM80.18-17.55v0c0 5.873-1.327 10.363-3.98 13.47-2.653 3.113-6.463 4.67-11.43 4.67v0c-4.913 0-8.71-1.55-11.39-4.65-2.673-3.107-4.01-7.603-4.01-13.49v0c0-5.88 1.34-10.367 4.02-13.46 2.687-3.087 6.48-4.63 11.38-4.63v0c4.967 0 8.777 1.557 11.43 4.67 2.653 3.12 3.98 7.593 3.98 13.42zM75.46-17.55v0c0-4.527-0.89-8.037-2.67-10.53-1.78-2.487-4.46-3.73-8.04-3.73v0c-3.6 0-6.28 1.257-8.04 3.77-1.753 2.513-2.63 6.01-2.63 10.49v0c0 2.193 0.207 4.157 0.62 5.89 0.413 1.733 1.047 3.23 1.9 4.49 0.86 1.267 1.977 2.237 3.35 2.91 1.373 0.673 2.973 1.01 4.8 1.01v0c3.58 0 6.26-1.247 8.04-3.74 1.78-2.5 2.67-6.02 2.67-10.56zM115.84-35.11v35.35h-5.37l-18.67-29.34v29.1h-4.59v-35.11h5.37l18.67 29.35v-29.35z" fill="#ffffff" fill-rule="nonzero" stroke="none" stroke-width="1" stroke-linecap="butt" stroke-linejoin="miter" stroke-miterlimit="10" stroke-dasharray="" stroke-dashoffset="0" font-family="none" font-weight="none" font-size="none" text-anchor="none" style="mix-blend-mode: normal" data-fill-palette-color="accent" opacity="1"></path></g></svg></g></svg></g></svg></g></svg></g><g transform="matrix(1,0,0,1,0,22.555054721549638)"><svg viewBox="0 0 202.0898905569007 202.0898905569007" height="202.0898905569007" width="202.0898905569007"><g><svg xmlns="http://www.w3.org/2000/svg" xmlns:xlink="http://www.w3.org/1999/xlink" xmlns:serif="http://www.serif.com/" viewBox="0.5 0 100 100" version="1.1" xml:space="preserve" style="" x="0" y="0" fill-rule="evenodd" clip-rule="evenodd" stroke-linejoin="round" stroke-miterlimit="1.41421" height="202.0898905569007" width="202.0898905569007" class="icon-icon-0" data-fill-palette-color="accent" id="icon-0"><g fill="#006600" data-fill-palette-color="accent"><ellipse cx="33.061" cy="49.986" rx="5.876" ry="6.325" fill="#ffffff" data-fill-palette-color="accent"></ellipse><ellipse cx="67.833" cy="49.986" rx="5.876" ry="6.325" fill="#ffffff" data-fill-palette-color="accent"></ellipse><ellipse cx="50.447" cy="49.986" rx="5.876" ry="6.325" fill="#ffffff" data-fill-palette-color="accent"></ellipse><path d="M22.363 24.316c2.387 0.004 4.777 0.046 7.16 0.048 0 0 1.803 0.292 2.069 1.72 0.225 1.205-0.801 2.434-2.071 2.492-2.849-0.002-5.707-0.179-8.536-0.035 0 0 0.027 2.121 0.222 4.103 0.327 3.234 0.462 6.411 0.085 9.798-0.761 7.009-0.067 15.028-0.053 21.986 0.004 1.488 0.011 2.977 0.018 4.465 0.003 0.804-0.028 1.611 0.024 2.406 0.149-0.028 0.298-0.055 0.447-0.082 2.352-0.396 4.813-0.077 7.203-0.073 0 0 1.958 0.425 2.093 1.916 0.122 1.347-1.162 2.322-2.748 2.29-2.435-0.05-4.808-0.021-7.3 0.258-0.943 0.106-1.951 0.064-2.786-0.462-0.457-0.288-0.183-0.094-0.474-0.416 0 0-0.637-2.047-0.664-3.763-0.061-8.577-0.234-17.123-0.148-25.68 0.032-3.124 0.665-6.181 0.405-9.281-0.19-2.261-0.472-4.512-0.52-6.792-0.034-1.061-0.208-2.149 0.128-3.188 0.215-0.662 0.049-0.268 0.395-0.712l0.18-0.191c0.392-0.348 0.427-0.32 0.591-0.393 0.476-0.213 1.193-0.246 1.193-0.246 1.024-0.14 2.053-0.169 3.087-0.168Z" fill-rule="nonzero" fill="#ffffff" data-fill-palette-color="accent"></path><path d="M79.049 24.316c1.542 0.003 3.268-0.054 4.194 0.673 0.199 0.156 0.087 0.043 0.338 0.323l0.188 0.262c0.224 0.407 0.145-0.159 0.342 1.035 0.715 4.34-1.017 8.766-0.508 13.71 1.044 10.145 0.306 21.048 0.239 30.648-0.012 0.716-0.115 1.759-0.115 1.759 0.002 0.063 0.003 0.126 0.003 0.19 0.001 0.581-0.083 1.172-0.426 1.651-0.147 0.203-0.042 0.089-0.294 0.338 0 0-0.574 0.428-1.039 0.574-1.848 0.579-3.65-0.254-5.811-0.238-1.363 0.009-2.724 0.108-4.084 0.115 0 0-1.185-0.038-1.788-0.833-0.956-1.262 0.039-3.373 1.773-3.379 0.126 0 0.253-0.002 0.379-0.004 0.161-0.003 0.322-0.007 0.483-0.011 2.22-0.067 4.457-0.242 6.647 0.162 0 0 0.076-3.736 0.085-6.863 0.013-6.442 0.189-12.923 0.119-19.379-0.033-2.781-0.631-5.511-0.459-8.396 0.148-2.489 0.558-4.978 0.577-7.444 0.017-0.857 0.336-0.674-0.346-0.679-2.644-0.01-5.298 0.042-7.916 0.046-0.973 0.001-2.619-0.936-2.329-2.492 0.155-0.833 0.853-1.529 1.682-1.684 0.725-0.136 0.96-0.037 1.403-0.039 2.219-0.012 4.436-0.047 6.663-0.045Z" fill-rule="nonzero" fill="#ffffff" data-fill-palette-color="accent"></path></g></svg></g></svg></g></svg></g><defs></defs></svg><rect width="395.52" height="225.97570491165715" fill="none" stroke="none" visibility="hidden"></rect></g></svg></g></svg>